HIERARCHY
ROOT Pelvis
{

	OFFSET     0.000000     0.000000     0.000000
	CHANNELS 6 Xposition Yposition Zposition Zrotation Xrotation Yrotation
	JOINT LowerBack
	{

		OFFSET    -0.000691     0.176488     0.017766
		CHANNELS 3 Zrotation Xrotation Yrotation
		JOINT Chest
		{

			OFFSET    -0.002754     0.128976    -0.000512
			CHANNELS 3 Zrotation Xrotation Yrotation
			JOINT back3
			{

				OFFSET     0.002471     0.201657    -0.000850
				CHANNELS 3 Zrotation Xrotation Yrotation
				JOINT Neck
				{

					OFFSET     0.001840     0.072570     0.000595
					CHANNELS 3 Zrotation Xrotation Yrotation
					JOINT Head
					{

						OFFSET     0.003323     0.152818     0.030907
						CHANNELS 3 Zrotation Xrotation Yrotation
						JOINT joint7
						{

							OFFSET     0.000612     0.183936     0.002625
							CHANNELS 3 Zrotation Xrotation Yrotation
							End Site
							{
								OFFSET     0.000000     0.000000     0.018310
							}
						}

					}

				}

				JOINT LeftCollar
				{

					OFFSET     0.053456     0.093486     0.002205
					CHANNELS 3 Zrotation Xrotation Yrotation
					JOINT LeftShoulder
					{

						OFFSET     0.112884    -0.020868     0.002319
						CHANNELS 3 Zrotation Xrotation Yrotation
						JOINT LeftElbow
						{

							OFFSET     0.297302     0.003523    -0.020737
							CHANNELS 3 Zrotation Xrotation Yrotation
							JOINT LeftWrist
							{

								OFFSET     0.290007     0.004431    -0.007313
								CHANNELS 3 Zrotation Xrotation Yrotation
								JOINT lf_hand
								{

									OFFSET     0.117001    -0.002589    -0.008771
									CHANNELS 3 Zrotation Xrotation Yrotation
									End Site
									{
										OFFSET     0.000000    -0.009821     0.000000
									}
								}

							}

						}

					}

				}

				JOINT RightCollar
				{

					OFFSET    -0.048666     0.096092     0.000301
					CHANNELS 3 Zrotation Xrotation Yrotation
					JOINT RightShoulder
					{

						OFFSET    -0.115072    -0.022479    -0.001894
						CHANNELS 3 Zrotation Xrotation Yrotation
						JOINT RightElbow
						{

							OFFSET    -0.297072     0.004954    -0.020752
							CHANNELS 3 Zrotation Xrotation Yrotation
							JOINT RightWrist
							{

								OFFSET    -0.292425    -0.005826    -0.023258
								CHANNELS 3 Zrotation Xrotation Yrotation
								JOINT rt_hand
								{

									OFFSET    -0.118185    -0.001061    -0.015047
									CHANNELS 3 Zrotation Xrotation Yrotation
									End Site
									{
										OFFSET     0.000000    -0.009987     0.000000
									}
								}

							}

						}

					}

				}

			}

			JOINT joint13
			{

				OFFSET     0.125914     0.117470     0.000000
				CHANNELS 3 Zrotation Xrotation Yrotation
				End Site
				{
					OFFSET     0.000000     0.000000    -0.017144
				}
			}

			JOINT joint14
			{

				OFFSET    -0.120063     0.114907     0.000000
				CHANNELS 3 Zrotation Xrotation Yrotation
				End Site
				{
					OFFSET     0.000000     0.000000    -0.016479
				}
			}

		}

	}

	JOINT RightHip
	{

		OFFSET    -0.109283    -0.057257     0.000987
		CHANNELS 3 Zrotation Xrotation Yrotation
		JOINT RightKnee
		{

			OFFSET     0.002149    -0.429339     0.038617
			CHANNELS 3 Zrotation Xrotation Yrotation
			JOINT RightAnkle
			{

				OFFSET    -0.001765    -0.522522    -0.077092
				CHANNELS 3 Zrotation Xrotation Yrotation
				JOINT r_ball
				{

					OFFSET    -0.000000    -0.037315     0.142913
					CHANNELS 3 Zrotation Xrotation Yrotation
					End Site
					{
						OFFSET     0.000000     0.000000     0.014648
					}
				}

			}

		}

	}

	JOINT LeftHip
	{

		OFFSET     0.098180    -0.056757     0.003895
		CHANNELS 3 Zrotation Xrotation Yrotation
		JOINT LeftKnee
		{

			OFFSET     0.007057    -0.430531     0.035812
			CHANNELS 3 Zrotation Xrotation Yrotation
			JOINT LeftAnkle
			{

				OFFSET    -0.005475    -0.521755    -0.078136
				CHANNELS 3 Zrotation Xrotation Yrotation
				JOINT lf_ball
				{

					OFFSET     0.000065    -0.036737     0.143337
					CHANNELS 3 Zrotation Xrotation Yrotation
					End Site
					{
						OFFSET     0.000000     0.000000     0.014648
					}
				}

			}

		}

	}

}

MOTION
Frames: 4
Frame Time: 0.033333
   -0.536869     0.873275     1.376364     1.103861    -7.775699   -33.064915    -6.213132    -2.512966     2.785927    -7.094214    10.379194     2.791724     0.000000     0.000000     0.000000     0.000000     0.000000     0.000000    10.233027     8.785560    16.194288     0.000000     0.000000     0.000000     9.782804     0.200061     2.419435   -85.732391     6.909268    29.749182     0.132675     0.779440   -19.320101    18.263723   -55.833515     6.675145     0.000000     0.000000     0.000000   -13.924931     0.807599    -3.263699    85.973122   -33.973309   -32.018635    -1.059670     1.964758    56.676090   -14.421103    -1.773606     9.521968     0.000000     0.000000     0.000000     0.000000     0.000000     0.000000     0.000000     0.000000     0.000000    -3.873242    19.373978     1.605839     0.000000    20.744226     0.000000   -15.252613    17.623993    -5.454666     0.000000     0.000000     0.000000     1.600542    -2.265077     4.791587     0.000000    18.472633     0.000000    -4.053249   -20.279854     3.862840     0.000000     0.000000     0.000000 
   -0.551253     0.878301     1.414024     1.002742    -8.841798   -32.345222    -6.269397    -2.864961     1.265664    -7.240568    11.652317     1.514802     0.000000     0.000000     0.000000     0.000000     0.000000     0.000000     9.028999     8.312696    19.162432     0.000000     0.000000     0.000000    10.116927     0.302192     2.937134   -83.449974    10.563925    16.410545     0.129915     0.772791   -19.085409    16.734329   -53.841415     3.296411     0.000000     0.000000     0.000000   -13.494573     0.801557    -3.378710    88.995049   -30.890093   -29.326147    -1.018488     1.938994    55.419590   -14.422806    -2.084975     9.631333     0.000000     0.000000     0.000000     0.000000     0.000000     0.000000     0.000000     0.000000     0.000000    -7.432112     8.368964    -4.419629     0.000000    36.305740     0.000000   -14.213359    20.835279   -12.417701     0.000000     0.000000     0.000000     0.561960     2.739466     4.613372     0.000000    15.346007     0.000000    -4.465745   -19.459455     3.077759     0.000000     0.000000     0.000000 
   -0.567348     0.882105     1.442945     0.629105    -8.593172   -30.366381    -6.113567    -3.434050    -0.505816    -7.802759    13.675241    -0.079823     0.000000     0.000000     0.000000     0.000000     0.000000     0.000000     9.337975     5.117232    21.861311     0.000000     0.000000     0.000000    12.308778     0.607015     3.474150   -79.014908    12.234907    -1.090964     0.136340     0.792979   -19.511072    14.085464   -48.650238    -2.011707     0.000000     0.000000     0.000000   -12.792224     0.872593    -3.887225    91.779457   -23.096132   -25.940165    -1.025429     1.951189    55.808002   -13.548143    -2.095143    10.931767     0.000000     0.000000     0.000000     0.000000     0.000000     0.000000     0.000000     0.000000     0.000000   -10.142938    -1.060183    -8.832784     0.000000    46.631432     0.000000   -12.861023    20.943222   -17.767717     0.000000     0.000000     0.000000     1.199827     6.138752     4.294543     0.000000    12.569131     0.000000    -5.229538   -19.169256     1.105204     0.000000     0.000000     0.000000 
   -0.586597     0.883535     1.469363     0.129650    -8.024386   -27.872908    -6.038126    -2.985596    -2.245721    -7.777187    15.444206    -2.156370     0.000000     0.000000     0.000000     0.000000     0.000000     0.000000    10.674042    -0.485426    24.282955     0.000000     0.000000     0.000000    15.222897     0.807030     3.238075   -75.775154     9.802602   -15.578514     0.180698     0.905724   -22.565035    11.522540   -41.680450    -6.467819     0.000000     0.000000     0.000000   -12.042892     0.913692    -4.322333    93.320198   -14.018253   -22.999716    -1.077990     1.978485    57.164696   -12.094441    -1.810296    12.627687     0.000000     0.000000     0.000000     0.000000     0.000000     0.000000     0.000000     0.000000     0.000000    -9.844193    -7.687941    -9.200315     0.000000    47.824818     0.000000   -10.056815    16.661177   -18.614056     0.000000     0.000000     0.000000     2.482961     7.739972     2.279905    -0.000734    11.795725     0.007109    -5.316579   -18.204508     0.041344     0.000000     0.000000     0.000000 
